<mxfile host="app.diagrams.net" modified="2024-08-19T07:32:46.557Z" agent="Mozilla/5.0 (Macintosh; Intel Mac OS X 10_15_7) AppleWebKit/537.36 (KHTML, like Gecko) Chrome/127.0.0.0 Safari/537.36" version="24.2.5" etag="XYC4VOmTTlDafHqVc_Kq" type="github">
  <diagram name="Page-1" id="LchkfIfX1e7rdrLOReTT">
    <mxGraphModel>
      <root>
        <mxCell id="0" />
        <mxCell id="1" parent="0" />
      </root>
    </mxGraphModel>
  </diagram>
</mxfile>
